<svg width="20" height="24" viewBox="0 0 20 24" fill="none" xmlns="http://www.w3.org/2000/svg">
<path d="M14.2375 0.749023L10.4893 0.750115V16.2245C10.4893 17.5567 9.69401 18.745 8.46325 19.2548C7.2325 19.7646 5.83126 19.4854 4.88929 18.5434C3.94731 17.6015 3.66814 16.1988 4.17793 14.968C4.68773 13.7372 5.87607 12.9438 7.20823 12.9438H8.42042V9.19518H7.20823C4.37052 9.19518 1.80048 10.913 0.714533 13.5347C-0.371411 16.1564 0.231354 19.1882 2.23792 21.1948C4.24448 23.2014 7.2767 23.8041 9.8984 22.7182C12.5201 21.6322 14.2375 19.0622 14.2375 16.2245V7.64397C15.2581 8.25201 16.4636 8.69837 17.9462 8.69837H19.8196V4.94867H17.9462C15.8382 4.94867 15.2667 4.09127 14.7662 3.00316C14.2662 1.91609 14.2375 0.749023 14.2375 0.749023Z" fill="#122052"/>
</svg>
