<svg width="22" height="18" viewBox="0 0 22 18" fill="none" xmlns="http://www.w3.org/2000/svg">
<path d="M21.3676 2.37727C20.6009 2.71805 19.7758 2.94792 18.9101 3.05079C19.794 2.52162 20.4718 1.68342 20.7914 0.683513C19.9647 1.17416 19.0494 1.53018 18.0745 1.72237C17.2943 0.890946 16.1822 0.371094 14.9515 0.371094C12.5889 0.371094 10.6733 2.28667 10.6733 4.64972C10.6733 4.98457 10.711 5.31096 10.7843 5.62465C7.22827 5.44601 4.07528 3.74294 1.96497 1.15426C1.59667 1.78587 1.38585 2.52078 1.38585 3.30564C1.38585 4.78984 2.14108 6.09963 3.28916 6.86671C2.58812 6.84427 1.92814 6.65166 1.35114 6.33119C1.35071 6.34897 1.35071 6.36718 1.35071 6.38538C1.35071 8.45802 2.82561 10.1869 4.7831 10.5806C4.42411 10.678 4.04607 10.7305 3.65576 10.7305C3.37975 10.7305 3.11178 10.7038 2.85058 10.6534C3.39541 12.3531 4.97529 13.5905 6.84727 13.6248C5.38296 14.7724 3.5385 15.4566 1.53359 15.4566C1.18858 15.4566 0.847796 15.4362 0.512939 15.3964C2.40693 16.611 4.65567 17.3188 7.07163 17.3188C14.9418 17.3188 19.245 10.7995 19.245 5.14544C19.245 4.96002 19.2412 4.77502 19.2331 4.5913C20.0688 3.98932 20.7944 3.23536 21.3676 2.37727Z" fill="#122052"/>
</svg>
